<svg width="178" height="238" viewBox="0 0 178 238" fill="none" xmlns="http://www.w3.org/2000/svg">
<path d="M0.0549661 75.052C-0.0940872 71.7246 1.42337 68.5413 4.10219 66.5619L91.3276 2.1103C95.2434 -0.783139 100.674 -0.435798 104.189 2.93293L154.321 50.9747L3.95351 162.083L0.0549661 75.052Z" fill="#0048FF"/>
<path fill-rule="evenodd" clip-rule="evenodd" d="M14.8959 175.58L73.5224 234.805C77.0179 238.336 82.5766 238.765 86.5727 235.812L161.358 180.553C171.74 172.881 177.782 160.671 177.582 147.763L176.729 92.6021C176.653 87.7156 175.385 82.9211 173.034 78.6364L165.264 64.472L14.8959 175.58ZM137.653 113.13C141.328 110.415 146.57 112.641 147.167 117.172L149.549 135.255C151.446 149.656 145.387 163.954 133.72 172.608L96.5274 200.193C94.052 202.029 90.5877 201.691 88.514 199.411L65.8 174.436C63.4084 171.806 63.8146 167.685 66.6735 165.573L137.653 113.13Z" fill="#0048FF"/>
</svg>
