<svg width="178" height="238" viewBox="0 0 178 238" fill="none" xmlns="http://www.w3.org/2000/svg">
<path d="M0.103794 75.0857C-0.0452591 71.7583 1.47219 68.575 4.15102 66.5956L91.3764 2.14399C95.2922 -0.749447 100.723 -0.402106 104.238 2.96662L154.37 51.0084L4.00234 162.116L0.103794 75.0857Z" fill="#0048FF"/>
<path fill-rule="evenodd" clip-rule="evenodd" d="M14.9447 175.614L73.5712 234.839C77.0667 238.37 82.6255 238.798 86.6216 235.846L161.407 180.586C171.789 172.915 177.831 160.704 177.631 147.797L176.778 92.6358C176.702 87.7493 175.434 82.9548 173.083 78.6701L165.312 64.5056L14.9447 175.614ZM137.701 113.164C141.377 110.448 146.618 112.675 147.215 117.206L149.598 135.288C151.495 149.689 145.436 163.988 133.769 172.641L96.5762 200.226C94.1008 202.062 90.6365 201.725 88.5628 199.445L65.8489 174.47C63.4573 171.84 63.8634 167.719 66.7223 165.606L137.701 113.164Z" fill="#0048FF"/>
</svg>
