<svg width="860" height="239" viewBox="0 0 860 239" fill="none" xmlns="http://www.w3.org/2000/svg">
<path d="M0.0178567 75.8655C-0.131197 72.538 1.38626 69.3548 4.06508 67.3754L91.2905 2.92377C95.2063 0.030338 100.637 0.377679 104.152 3.74641L154.284 51.7882L3.9164 162.896L0.0178567 75.8655Z" fill="#0048FF"/>
<path fill-rule="evenodd" clip-rule="evenodd" d="M14.8587 176.394L73.4853 235.618C76.9808 239.15 82.5395 239.578 86.5356 236.626L161.321 181.366C171.703 173.695 177.745 161.484 177.545 148.577L176.692 93.4156C176.616 88.5291 175.348 83.7345 172.997 79.4498L165.227 65.2854L14.8587 176.394ZM137.616 113.944C141.291 111.228 146.532 113.454 147.13 117.985L149.512 136.068C151.409 150.469 145.35 164.768 133.683 173.421L96.4903 201.006C94.0149 202.842 90.5506 202.505 88.4769 200.225L65.7629 175.25C63.3713 172.62 63.7775 168.498 66.6364 166.386L137.616 113.944Z" fill="#0048FF"/>
<path d="M220.141 175.73V73.0488H258.047C268.794 73.0488 277.896 75.1305 285.351 79.2939C292.806 83.3605 298.47 89.2667 302.343 97.0125C306.313 104.662 308.298 113.86 308.298 124.607C308.298 135.161 306.362 144.262 302.489 151.911C298.713 159.56 293.097 165.466 285.641 169.63C278.186 173.696 269.036 175.73 258.192 175.73H220.141ZM238.295 159.173H257.756C265.405 159.173 271.554 157.721 276.201 154.816C280.945 151.814 284.383 147.748 286.513 142.616C288.74 137.388 289.853 131.336 289.853 124.462C289.853 117.781 288.788 111.826 286.658 106.598C284.528 101.37 281.091 97.2546 276.346 94.253C271.699 91.1547 265.551 89.6055 257.902 89.6055H238.295V159.173Z" fill="white"/>
<path d="M321.306 175.73V99.191H339.024V175.73H321.306ZM330.165 90.3317C326.776 90.3317 324.065 89.3151 322.032 87.2818C319.998 85.2485 318.982 82.5859 318.982 79.2939C318.982 76.0987 320.047 73.4845 322.177 71.4512C324.307 69.3211 326.97 68.2561 330.165 68.2561C333.263 68.2561 335.926 69.2727 338.153 71.306C340.38 73.3393 341.493 76.0019 341.493 79.2939C341.493 82.5859 340.428 85.2485 338.298 87.2818C336.168 89.3151 333.457 90.3317 330.165 90.3317Z" fill="white"/>
<path d="M361.57 175.73V114.876H349.66V99.191H361.57V91.9293C361.57 86.1199 362.441 81.3756 364.184 77.6963C365.927 73.9202 368.686 71.1607 372.462 69.4179C376.335 67.6751 381.273 66.8037 387.276 66.8037H398.604V82.489H389.309C386.695 82.489 384.662 82.9248 383.21 83.7962C381.757 84.6676 380.692 85.9747 380.014 87.7175C379.433 89.3635 379.143 91.3968 379.143 93.8173V99.191H398.604V114.876H379.143V175.73H361.57Z" fill="white"/>
<path d="M408.18 175.73V99.191H425.898V175.73H408.18ZM417.039 90.3317C413.65 90.3317 410.939 89.3151 408.906 87.2818C406.873 85.2485 405.856 82.5859 405.856 79.2939C405.856 76.0987 406.921 73.4845 409.051 71.4512C411.181 69.3211 413.844 68.2561 417.039 68.2561C420.137 68.2561 422.8 69.2727 425.027 71.306C427.254 73.3393 428.367 76.0019 428.367 79.2939C428.367 82.5859 427.302 85.2485 425.172 87.2818C423.042 89.3151 420.331 90.3317 417.039 90.3317Z" fill="white"/>
<path d="M475.022 175.73C468.825 175.73 463.693 174.907 459.627 173.261C455.657 171.615 452.655 168.952 450.622 165.273C448.686 161.593 447.717 156.655 447.717 150.459V114.876H435.953V99.191H447.717V77.8415H465.436V99.191H483.3V114.876H465.436V148.135C465.436 152.008 466.114 154.961 467.469 156.994C468.825 159.028 471.875 160.044 476.619 160.044H482.719V175.73H475.022Z" fill="white"/>
<path d="M493.635 175.73V99.191H509.756L510.773 109.212C512.71 106.308 514.888 104.081 517.309 102.531C519.826 100.885 522.489 99.7235 525.297 99.0458C528.201 98.368 531.106 98.0291 534.011 98.0291C535.076 98.0291 536.044 98.0291 536.915 98.0291C537.884 98.0291 538.658 98.0776 539.239 98.1744V115.022H534.592C529.557 115.022 525.297 115.99 521.811 117.926C518.325 119.863 515.711 122.622 513.968 126.205C512.225 129.787 511.354 134.193 511.354 139.421V175.73H493.635Z" fill="white"/>
<path d="M572.606 176.746C569.023 176.746 565.634 176.262 562.439 175.294C559.244 174.326 556.388 172.922 553.87 171.082C551.353 169.146 549.32 166.773 547.77 163.966C546.318 161.061 545.592 157.672 545.592 153.799C545.592 148.861 546.56 144.843 548.497 141.745C550.433 138.55 553.047 136.129 556.339 134.483C559.728 132.837 563.553 131.724 567.813 131.143C572.073 130.465 576.527 130.126 581.174 130.126H596.134C596.134 126.737 595.601 123.832 594.536 121.412C593.471 118.895 591.776 116.91 589.453 115.457C587.226 114.005 584.321 113.279 580.739 113.279C578.415 113.279 576.236 113.569 574.203 114.15C572.267 114.634 570.572 115.457 569.12 116.619C567.764 117.684 566.796 119.088 566.215 120.831H548.061C548.739 116.861 550.094 113.472 552.127 110.665C554.258 107.76 556.823 105.388 559.825 103.548C562.923 101.708 566.312 100.353 569.991 99.4815C573.671 98.5133 577.398 98.0291 581.174 98.0291C592.309 98.0291 600.394 101.224 605.429 107.615C610.56 114.005 613.126 122.961 613.126 134.483V175.73H597.441L597.005 165.854C594.778 169.146 592.115 171.566 589.017 173.115C585.919 174.665 582.917 175.633 580.013 176.02C577.108 176.504 574.639 176.746 572.606 176.746ZM576.091 162.368C579.964 162.368 583.401 161.642 586.403 160.19C589.404 158.737 591.777 156.704 593.519 154.09C595.359 151.475 596.279 148.474 596.279 145.085V142.616H582.336C580.012 142.616 577.689 142.713 575.365 142.907C573.138 143.003 571.105 143.391 569.265 144.068C567.425 144.649 565.925 145.569 564.763 146.828C563.698 148.087 563.165 149.878 563.165 152.202C563.165 154.525 563.746 156.413 564.908 157.866C566.167 159.318 567.764 160.432 569.701 161.206C571.734 161.981 573.864 162.368 576.091 162.368Z" fill="white"/>
<path d="M659.815 176.746C652.07 176.746 645.679 175.003 640.645 171.518C635.61 167.935 631.834 163.191 629.316 157.285C626.896 151.379 625.685 144.795 625.685 137.533C625.685 129.981 626.992 123.252 629.607 117.345C632.221 111.342 636.142 106.646 641.371 103.258C646.599 99.772 653.135 98.0291 660.977 98.0291C663.882 98.0291 666.69 98.368 669.401 99.0458C672.209 99.6267 674.823 100.595 677.244 101.95C679.761 103.209 681.843 104.904 683.489 107.034V73.0488H701.207V175.73H684.07L683.779 166.144C681.94 168.565 679.761 170.55 677.244 172.099C674.823 173.648 672.112 174.81 669.111 175.584C666.109 176.359 663.011 176.746 659.815 176.746ZM663.156 160.77C667.803 160.77 671.628 159.705 674.629 157.575C677.631 155.348 679.858 152.444 681.31 148.861C682.859 145.182 683.634 141.309 683.634 137.242C683.634 132.982 682.859 129.109 681.31 125.624C679.858 122.138 677.631 119.33 674.629 117.2C671.628 115.07 667.803 114.005 663.156 114.005C658.218 114.005 654.297 115.118 651.392 117.345C648.584 119.572 646.502 122.525 645.147 126.205C643.888 129.787 643.259 133.66 643.259 137.823C643.259 140.922 643.598 143.875 644.275 146.683C645.05 149.394 646.212 151.814 647.761 153.944C649.31 156.075 651.344 157.769 653.861 159.028C656.378 160.19 659.477 160.77 663.156 160.77Z" fill="white"/>
<path d="M751.192 176.746C743.252 176.746 736.475 175.1 730.859 171.808C725.34 168.516 721.128 163.966 718.224 158.156C715.416 152.25 714.012 145.424 714.012 137.678C714.012 129.932 715.464 123.106 718.369 117.2C721.37 111.197 725.631 106.501 731.149 103.112C736.765 99.7235 743.494 98.0291 751.337 98.0291C757.146 98.0291 762.23 99.0942 766.587 101.224C770.944 103.258 774.575 106.065 777.479 109.648C780.481 113.23 782.708 117.297 784.16 121.848C785.612 126.398 786.29 131.191 786.193 136.226C786.097 137.388 786 138.55 785.903 139.711C785.806 140.777 785.661 141.938 785.467 143.197H731.73C732.021 146.586 732.892 149.684 734.345 152.492C735.894 155.3 738.024 157.527 740.735 159.173C743.543 160.819 747.028 161.642 751.192 161.642C753.612 161.642 755.936 161.351 758.163 160.77C760.39 160.093 762.326 159.124 763.972 157.866C765.715 156.607 766.877 155.009 767.458 153.073H785.177C783.918 158.592 781.594 163.094 778.205 166.58C774.817 170.065 770.75 172.631 766.006 174.277C761.358 175.923 756.42 176.746 751.192 176.746ZM732.021 129.981H768.91C768.91 126.786 768.184 123.881 766.732 121.267C765.28 118.652 763.198 116.619 760.487 115.167C757.873 113.618 754.677 112.843 750.901 112.843C746.835 112.843 743.446 113.666 740.735 115.312C738.024 116.958 735.942 119.088 734.49 121.702C733.038 124.317 732.215 127.076 732.021 129.981Z" fill="white"/>
<path d="M828.198 176.746C824.519 176.746 820.839 176.359 817.16 175.584C813.578 174.81 810.189 173.551 806.994 171.808C803.799 169.969 801.136 167.5 799.006 164.401C796.876 161.303 795.472 157.43 794.794 152.783H812.658C813.432 154.913 814.643 156.655 816.289 158.011C818.032 159.27 820.016 160.238 822.243 160.916C824.567 161.497 826.842 161.787 829.069 161.787C830.425 161.787 831.877 161.69 833.426 161.497C835.072 161.303 836.573 160.916 837.929 160.335C839.381 159.754 840.543 158.931 841.414 157.866C842.286 156.704 842.721 155.203 842.721 153.364C842.721 151.621 842.237 150.265 841.269 149.297C840.301 148.232 838.994 147.409 837.348 146.828C835.702 146.15 833.717 145.618 831.393 145.23C827.23 144.359 822.776 143.439 818.031 142.471C813.287 141.406 809.172 139.76 805.687 137.533C804.234 136.662 802.976 135.645 801.91 134.483C800.845 133.321 799.926 132.062 799.151 130.707C798.473 129.255 797.941 127.705 797.553 126.059C797.263 124.413 797.118 122.622 797.118 120.686C797.118 116.619 797.941 113.182 799.587 110.374C801.33 107.469 803.605 105.146 806.413 103.403C809.317 101.563 812.609 100.208 816.289 99.3363C819.968 98.4648 823.744 98.0291 827.617 98.0291C832.845 98.0291 837.59 98.8521 841.85 100.498C846.11 102.144 849.644 104.662 852.452 108.05C855.357 111.439 857.1 115.748 857.681 120.976H840.833C840.349 118.556 838.848 116.619 836.331 115.167C833.91 113.714 830.812 112.988 827.036 112.988C825.681 112.988 824.277 113.134 822.824 113.424C821.372 113.618 819.968 114.005 818.612 114.586C817.354 115.07 816.289 115.845 815.417 116.91C814.643 117.975 814.255 119.282 814.255 120.831C814.255 122.283 814.594 123.542 815.272 124.607C816.047 125.672 817.16 126.592 818.612 127.367C820.162 128.044 821.953 128.625 823.986 129.109C827.278 129.787 830.715 130.465 834.298 131.143C837.88 131.82 840.979 132.498 843.593 133.176C846.691 134.047 849.499 135.306 852.016 136.952C854.534 138.501 856.47 140.583 857.826 143.197C859.278 145.714 860.004 148.958 860.004 152.928C860.004 157.575 859.036 161.448 857.1 164.547C855.26 167.645 852.791 170.065 849.693 171.808C846.594 173.551 843.157 174.81 839.381 175.584C835.605 176.359 831.877 176.746 828.198 176.746Z" fill="white"/>
</svg>
