<svg width="861" height="238" viewBox="0 0 861 238" fill="none" xmlns="http://www.w3.org/2000/svg">
<path d="M0.103794 75.0857C-0.0452591 71.7583 1.47219 68.575 4.15102 66.5956L91.3764 2.14399C95.2922 -0.749447 100.723 -0.402106 104.238 2.96662L154.37 51.0084L4.00234 162.116L0.103794 75.0857Z" fill="#0048FF"/>
<path fill-rule="evenodd" clip-rule="evenodd" d="M14.9447 175.614L73.5712 234.839C77.0667 238.37 82.6255 238.798 86.6216 235.846L161.407 180.586C171.789 172.915 177.831 160.704 177.631 147.797L176.778 92.6358C176.702 87.7493 175.434 82.9548 173.083 78.6701L165.312 64.5056L14.9447 175.614ZM137.701 113.164C141.377 110.448 146.618 112.675 147.215 117.206L149.598 135.288C151.495 149.689 145.436 163.988 133.769 172.641L96.5762 200.226C94.1008 202.062 90.6365 201.725 88.5628 199.445L65.8489 174.47C63.4573 171.84 63.8634 167.719 66.7223 165.606L137.701 113.164Z" fill="#0048FF"/>
<path d="M220.227 174.95V72.269H258.133C268.88 72.269 277.982 74.3507 285.437 78.5141C292.892 82.5807 298.556 88.4869 302.429 96.2327C306.399 103.882 308.384 113.08 308.384 123.827C308.384 134.381 306.447 143.482 302.575 151.131C298.798 158.78 293.183 164.687 285.727 168.85C278.272 172.917 269.122 174.95 258.278 174.95H220.227ZM238.381 158.393H257.842C265.491 158.393 271.64 156.941 276.287 154.036C281.031 151.035 284.469 146.968 286.599 141.836C288.826 136.608 289.939 130.556 289.939 123.682C289.939 117.001 288.874 111.047 286.744 105.818C284.614 100.59 281.177 96.4748 276.432 93.4733C271.785 90.3749 265.637 88.8257 257.988 88.8257H238.381V158.393Z" fill="white"/>
<path d="M321.391 174.95V98.4112H339.11V174.95H321.391ZM330.251 89.5519C326.862 89.5519 324.151 88.5353 322.118 86.502C320.084 84.4687 319.068 81.8061 319.068 78.5141C319.068 75.3189 320.133 72.7047 322.263 70.6714C324.393 68.5413 327.056 67.4763 330.251 67.4763C333.349 67.4763 336.012 68.4929 338.239 70.5262C340.466 72.5595 341.579 75.2221 341.579 78.5141C341.579 81.8061 340.514 84.4687 338.384 86.502C336.254 88.5353 333.543 89.5519 330.251 89.5519Z" fill="white"/>
<path d="M361.656 174.95V114.097H349.746V98.4112H361.656V91.1495C361.656 85.3401 362.527 80.5958 364.27 76.9165C366.013 73.1404 368.772 70.381 372.548 68.6381C376.421 66.8953 381.359 66.0239 387.362 66.0239H398.69V81.7093H389.395C386.781 81.7093 384.748 82.145 383.295 83.0164C381.843 83.8878 380.778 85.1949 380.1 86.9377C379.519 88.5837 379.229 90.617 379.229 93.0376V98.4112H398.69V114.097H379.229V174.95H361.656Z" fill="white"/>
<path d="M408.266 174.95V98.4112H425.984V174.95H408.266ZM417.125 89.5519C413.736 89.5519 411.025 88.5353 408.992 86.502C406.958 84.4687 405.942 81.8061 405.942 78.5141C405.942 75.3189 407.007 72.7047 409.137 70.6714C411.267 68.5413 413.93 67.4763 417.125 67.4763C420.223 67.4763 422.886 68.4929 425.113 70.5262C427.34 72.5595 428.453 75.2221 428.453 78.5141C428.453 81.8061 427.388 84.4687 425.258 86.502C423.128 88.5353 420.417 89.5519 417.125 89.5519Z" fill="white"/>
<path d="M475.107 174.95C468.911 174.95 463.779 174.127 459.713 172.481C455.743 170.835 452.741 168.172 450.708 164.493C448.772 160.814 447.803 155.876 447.803 149.679V114.097H436.039V98.4112H447.803V77.0618H465.522V98.4112H483.386V114.097H465.522V147.355C465.522 151.228 466.2 154.181 467.555 156.215C468.911 158.248 471.961 159.265 476.705 159.265H482.805V174.95H475.107Z" fill="white"/>
<path d="M493.721 174.95V98.4112H509.842L510.859 108.432C512.795 105.528 514.974 103.301 517.395 101.752C519.912 100.106 522.575 98.9438 525.382 98.266C528.287 97.5882 531.192 97.2494 534.097 97.2494C535.162 97.2494 536.13 97.2494 537.001 97.2494C537.969 97.2494 538.744 97.2978 539.325 97.3946V114.242H534.677C529.643 114.242 525.382 115.21 521.897 117.146C518.411 119.083 515.797 121.842 514.054 125.425C512.311 129.007 511.44 133.413 511.44 138.641V174.95H493.721Z" fill="white"/>
<path d="M572.691 175.966C569.109 175.966 565.72 175.482 562.525 174.514C559.33 173.546 556.474 172.142 553.956 170.302C551.439 168.366 549.406 165.994 547.856 163.186C546.404 160.281 545.678 156.892 545.678 153.019C545.678 148.081 546.646 144.063 548.583 140.965C550.519 137.77 553.133 135.349 556.425 133.703C559.814 132.057 563.638 130.944 567.899 130.363C572.159 129.685 576.613 129.346 581.26 129.346H596.219C596.219 125.957 595.687 123.053 594.622 120.632C593.557 118.115 591.862 116.13 589.539 114.678C587.312 113.225 584.407 112.499 580.825 112.499C578.501 112.499 576.322 112.789 574.289 113.37C572.353 113.855 570.658 114.678 569.206 115.839C567.85 116.904 566.882 118.308 566.301 120.051H548.147C548.825 116.081 550.18 112.693 552.213 109.885C554.344 106.98 556.909 104.608 559.911 102.768C563.009 100.929 566.398 99.5731 570.077 98.7017C573.757 97.7335 577.484 97.2494 581.26 97.2494C592.395 97.2494 600.48 100.445 605.514 106.835C610.646 113.225 613.212 122.181 613.212 133.703V174.95H597.527L597.091 165.074C594.864 168.366 592.201 170.786 589.103 172.336C586.005 173.885 583.003 174.853 580.098 175.24C577.194 175.724 574.725 175.966 572.691 175.966ZM576.177 161.588C580.05 161.588 583.487 160.862 586.489 159.41C589.49 157.957 591.862 155.924 593.605 153.31C595.445 150.696 596.365 147.694 596.365 144.305V141.836H582.422C580.098 141.836 577.775 141.933 575.451 142.127C573.224 142.224 571.191 142.611 569.351 143.289C567.511 143.87 566.011 144.789 564.849 146.048C563.784 147.307 563.251 149.098 563.251 151.422C563.251 153.746 563.832 155.634 564.994 157.086C566.253 158.538 567.85 159.652 569.787 160.426C571.82 161.201 573.95 161.588 576.177 161.588Z" fill="white"/>
<path d="M659.901 175.966C652.156 175.966 645.765 174.224 640.73 170.738C635.696 167.156 631.92 162.411 629.402 156.505C626.982 150.599 625.771 144.015 625.771 136.753C625.771 129.201 627.078 122.472 629.693 116.566C632.307 110.563 636.228 105.867 641.457 102.478C646.685 98.9922 653.221 97.2494 661.063 97.2494C663.968 97.2494 666.776 97.5882 669.487 98.266C672.295 98.8469 674.909 99.8152 677.33 101.171C679.847 102.429 681.929 104.124 683.575 106.254V72.269H701.293V174.95H684.156L683.865 165.364C682.026 167.785 679.847 169.77 677.33 171.319C674.909 172.868 672.198 174.03 669.196 174.805C666.195 175.579 663.097 175.966 659.901 175.966ZM663.242 159.991C667.889 159.991 671.714 158.926 674.715 156.796C677.717 154.569 679.944 151.664 681.396 148.081C682.945 144.402 683.72 140.529 683.72 136.463C683.72 132.202 682.945 128.33 681.396 124.844C679.944 121.358 677.717 118.55 674.715 116.42C671.714 114.29 667.889 113.225 663.242 113.225C658.304 113.225 654.383 114.339 651.478 116.566C648.67 118.792 646.588 121.746 645.233 125.425C643.974 129.007 643.345 132.88 643.345 137.044C643.345 140.142 643.684 143.095 644.361 145.903C645.136 148.614 646.298 151.035 647.847 153.165C649.396 155.295 651.429 156.989 653.947 158.248C656.464 159.41 659.563 159.991 663.242 159.991Z" fill="white"/>
<path d="M751.278 175.966C743.338 175.966 736.561 174.32 730.945 171.029C725.426 167.737 721.214 163.186 718.31 157.376C715.502 151.47 714.098 144.644 714.098 136.898C714.098 129.153 715.55 122.327 718.455 116.42C721.456 110.417 725.716 105.721 731.235 102.333C736.851 98.9438 743.58 97.2494 751.423 97.2494C757.232 97.2494 762.316 98.3144 766.673 100.445C771.03 102.478 774.661 105.286 777.565 108.868C780.567 112.451 782.794 116.517 784.246 121.068C785.698 125.619 786.376 130.411 786.279 135.446C786.182 136.608 786.086 137.77 785.989 138.932C785.892 139.997 785.747 141.159 785.553 142.417H731.816C732.107 145.806 732.978 148.904 734.431 151.712C735.98 154.52 738.11 156.747 740.821 158.393C743.629 160.039 747.114 160.862 751.278 160.862C753.698 160.862 756.022 160.572 758.249 159.991C760.476 159.313 762.412 158.345 764.058 157.086C765.801 155.827 766.963 154.23 767.544 152.293H785.263C784.004 157.812 781.68 162.314 778.291 165.8C774.903 169.286 770.836 171.852 766.092 173.497C761.444 175.143 756.506 175.966 751.278 175.966ZM732.107 129.201H768.996C768.996 126.006 768.27 123.101 766.818 120.487C765.366 117.873 763.284 115.839 760.573 114.387C757.959 112.838 754.763 112.063 750.987 112.063C746.921 112.063 743.532 112.886 740.821 114.532C738.11 116.178 736.028 118.308 734.576 120.923C733.123 123.537 732.3 126.296 732.107 129.201Z" fill="white"/>
<path d="M828.284 175.966C824.605 175.966 820.925 175.579 817.246 174.805C813.664 174.03 810.275 172.771 807.08 171.029C803.885 169.189 801.222 166.72 799.092 163.622C796.962 160.523 795.558 156.65 794.88 152.003H812.744C813.518 154.133 814.729 155.876 816.375 157.231C818.117 158.49 820.102 159.458 822.329 160.136C824.653 160.717 826.928 161.007 829.155 161.007C830.511 161.007 831.963 160.91 833.512 160.717C835.158 160.523 836.659 160.136 838.015 159.555C839.467 158.974 840.629 158.151 841.5 157.086C842.372 155.924 842.807 154.423 842.807 152.584C842.807 150.841 842.323 149.485 841.355 148.517C840.387 147.452 839.08 146.629 837.434 146.048C835.788 145.37 833.803 144.838 831.479 144.451C827.316 143.579 822.862 142.659 818.117 141.691C813.373 140.626 809.258 138.98 805.773 136.753C804.32 135.882 803.061 134.865 801.996 133.703C800.931 132.541 800.012 131.283 799.237 129.927C798.559 128.475 798.027 126.926 797.639 125.28C797.349 123.634 797.204 121.842 797.204 119.906C797.204 115.839 798.027 112.402 799.673 109.594C801.415 106.69 803.691 104.366 806.499 102.623C809.403 100.783 812.695 99.4279 816.375 98.5565C820.054 97.6851 823.83 97.2494 827.703 97.2494C832.931 97.2494 837.676 98.0724 841.936 99.7183C846.196 101.364 849.73 103.882 852.538 107.271C855.443 110.659 857.186 114.968 857.766 120.196H840.919C840.435 117.776 838.934 115.839 836.417 114.387C833.996 112.935 830.898 112.209 827.122 112.209C825.766 112.209 824.362 112.354 822.91 112.644C821.458 112.838 820.054 113.225 818.698 113.806C817.44 114.29 816.375 115.065 815.503 116.13C814.729 117.195 814.341 118.502 814.341 120.051C814.341 121.504 814.68 122.762 815.358 123.827C816.133 124.892 817.246 125.812 818.698 126.587C820.248 127.264 822.039 127.845 824.072 128.33C827.364 129.007 830.801 129.685 834.384 130.363C837.966 131.041 841.065 131.718 843.679 132.396C846.777 133.268 849.585 134.526 852.102 136.172C854.62 137.721 856.556 139.803 857.912 142.417C859.364 144.935 860.09 148.178 860.09 152.148C860.09 156.796 859.122 160.668 857.185 163.767C855.346 166.865 852.877 169.286 849.779 171.029C846.68 172.771 843.243 174.03 839.467 174.805C835.691 175.579 831.963 175.966 828.284 175.966Z" fill="white"/>
</svg>
